<?xml version="1.0" encoding="UTF-8" standalone="no"?>
<!-- Created with Inkscape (http://www.inkscape.org/) -->

<svg
   xmlns:dc="http://purl.org/dc/elements/1.1/"
   xmlns:cc="http://creativecommons.org/ns#"
   xmlns:rdf="http://www.w3.org/1999/02/22-rdf-syntax-ns#"
   xmlns:svg="http://www.w3.org/2000/svg"
   xmlns="http://www.w3.org/2000/svg"
   xmlns:sodipodi="http://sodipodi.sourceforge.net/DTD/sodipodi-0.dtd"
   xmlns:inkscape="http://www.inkscape.org/namespaces/inkscape"
   width="141.12146mm"
   height="92.27872mm"
   viewBox="0 0 161.12146 112.27872"
   version="1.1"
   id="svg87"
   inkscape:version="0.92.4 (5da689c313, 2019-01-14)"
   sodipodi:docname="desktop.svg">
  <defs
     id="defs81" />
  <sodipodi:namedview
     id="base"
     pagecolor="#ffffff"
     bordercolor="#666666"
     borderopacity="1.0"
     inkscape:pageopacity="0.0"
     inkscape:pageshadow="2"
     inkscape:zoom="0.35"
     inkscape:cx="307.33864"
     inkscape:cy="192.18027"
     inkscape:document-units="mm"
     inkscape:current-layer="layer1"
     showgrid="false"
     inkscape:snap-global="false"
     inkscape:window-width="1920"
     inkscape:window-height="1017"
     inkscape:window-x="-8"
     inkscape:window-y="-8"
     inkscape:window-maximized="1" />
  <metadata
     id="metadata84">
    <rdf:RDF>
      <cc:Work
         rdf:about="">
        <dc:format>image/svg+xml</dc:format>
        <dc:type
           rdf:resource="http://purl.org/dc/dcmitype/StillImage" />
        <dc:title></dc:title>
      </cc:Work>
    </rdf:RDF>
  </metadata>
  <g
     inkscape:label="Capa 1"
     inkscape:groupmode="layer"
     id="layer1"
     transform="translate(-24.516651,-87.402302)">
    <path
       inkscape:connector-curvature="0"
       style="fill:#2f2e41;stroke-width:0.26458332"
       d="M 180.57514,199.68103 H 29.579621 a 5.0629608,5.0629608 0 0 1 -5.06297,-5.06296 v 0 q 82.103779,-9.54203 161.121459,0 v 0 a 5.0629608,5.0629608 0 0 1 -5.06297,5.06296 z"
       id="path4" />
    <path
       inkscape:connector-curvature="0"
       style="fill:#3f3d56;stroke-width:0.26458332"
       d="m 185.6381,194.91589 -161.121449,-0.29783 18.67342,-31.42017 0.0893,-0.14892 V 93.802492 a 6.3996464,6.3996464 0 0 1 6.40018,-6.40019 H 159.58164 a 6.3996464,6.3996464 0 0 1 6.40019,6.40019 v 69.722998 z"
       id="path6" />
    <path
       inkscape:connector-curvature="0"
       style="fill:#ffffff;stroke-width:0.26458332"
       d="m 49.533661,91.869642 a 2.0870915,2.0870915 0 0 0 -2.08475,2.08475 v 63.138158 a 2.0871868,2.0871868 0 0 0 2.08475,2.08475 H 160.62109 a 2.0872767,2.0872767 0 0 0 2.08475,-2.08475 V 93.954392 a 2.0871841,2.0871841 0 0 0 -2.08475,-2.08475 z"
       id="path8" />
    <path
       inkscape:connector-curvature="0"
       style="fill:#2f2e41;stroke-width:0.26458332"
       d="m 49.999161,167.5163 a 0.89592944,0.89592944 0 0 0 -0.81174,0.52003 l -5.75386,12.5085 a 0.89342383,0.89342383 0 0 0 0.81159,1.26691 H 165.24576 a 0.89336298,0.89336298 0 0 0 0.79894,-1.29308 l -6.25425,-12.50851 a 0.88893385,0.88893385 0 0 0 -0.79895,-0.49385 z"
       id="path10" />
    <circle
       style="fill:#ffffff;stroke-width:0.26458332"
       cx="104.63066"
       cy="89.487068"
       r="1.3401966"
       id="circle12" />
    <path
       inkscape:connector-curvature="0"
       style="fill:#2f2e41;stroke-width:0.26458332"
       d="m 92.737273,184.19431 a 0.89482083,0.89482083 0 0 0 -0.862632,0.66108 l -1.44331,5.36079 a 0.89337885,0.89337885 0 0 0 0.86264,1.12585 h 27.448289 a 0.89325979,0.89325979 0 0 0 0.84402,-1.18576 l -1.85557,-5.36079 a 0.89393712,0.89393712 0 0 0 -0.8443,-0.60117 z"
       id="path14" />
    <polygon
       transform="matrix(0.26458333,0,0,0.26458333,16.802681,72.57004)"
       style="fill:#2f2e41"
       points="99.732,342.53 100.081,341.968 100.081,338.028 563.827,338.028 563.827,342.53 "
       id="polygon16" />
    <path
       inkscape:connector-curvature="0"
       style="fill:#e6e6e6;stroke-width:0.26458332"
       d="m 63.180412,104.97914 a 1.6420994,1.6420994 0 0 0 -1.616602,1.66302 v 37.69526 a 1.6420994,1.6420994 0 0 0 1.616602,1.66302 h 83.793928 a 1.6421021,1.6421021 0 0 0 1.6166,-1.66302 v -37.69526 a 1.6421021,1.6421021 0 0 0 -1.6166,-1.66302 z"
       id="path18" />
    <path
       inkscape:connector-curvature="0"
       style="fill:#6c63ff;stroke-width:0.26458332"
       d="m 111.31817,146.06781 h 30.50285 a 0.98195077,0.98195077 0 0 0 0.69437,-1.6762 l -19.52225,-19.52225 a 0.98301704,0.98301704 0 0 0 -1.38861,0 l -4.85467,4.85468 a 2.0592521,2.0592521 0 0 1 -2.91259,0 L 98.631748,114.51852 a 0.98317579,0.98317579 0 0 0 -1.388738,0 L 67.50464,144.2569 a 0.98195077,0.98195077 0 0 0 0.694373,1.6762 h 43.158227 z"
       id="path20" />
    <circle
       style="fill:#6c63ff;stroke-width:0.26458332"
       cx="75.035507"
       cy="113.87045"
       r="3.7720747"
       id="circle22" />
  </g>
</svg>
