<?xml version="1.0" encoding="UTF-8" standalone="no"?>
<svg
   xmlns:dc="http://purl.org/dc/elements/1.1/"
   xmlns:cc="http://creativecommons.org/ns#"
   xmlns:rdf="http://www.w3.org/1999/02/22-rdf-syntax-ns#"
   xmlns:svg="http://www.w3.org/2000/svg"
   xmlns="http://www.w3.org/2000/svg"
   xmlns:sodipodi="http://sodipodi.sourceforge.net/DTD/sodipodi-0.dtd"
   xmlns:inkscape="http://www.inkscape.org/namespaces/inkscape"
   height="100mm"
   style="shape-rendering:geometricPrecision; text-rendering:geometricPrecision; image-rendering:optimizeQuality; fill-rule:evenodd; clip-rule:evenodd"
   viewBox="0 0 100 100"
   width="100mm"
   xml:space="preserve"
   version="1.1"
   id="svg3733"
   sodipodi:docname="github.svg"
   inkscape:version="0.92.4 (5da689c313, 2019-01-14)"><metadata
     id="metadata3737"><rdf:RDF><cc:Work
         rdf:about=""><dc:format>image/svg+xml</dc:format><dc:type
           rdf:resource="http://purl.org/dc/dcmitype/StillImage" /></cc:Work></rdf:RDF></metadata><sodipodi:namedview
     pagecolor="#ffffff"
     bordercolor="#666666"
     borderopacity="1"
     objecttolerance="10"
     gridtolerance="10"
     guidetolerance="10"
     inkscape:pageopacity="0"
     inkscape:pageshadow="2"
     inkscape:window-width="1920"
     inkscape:window-height="1017"
     id="namedview3735"
     showgrid="false"
     inkscape:zoom="2.2489583"
     inkscape:cx="188.97638"
     inkscape:cy="188.97638"
     inkscape:window-x="-8"
     inkscape:window-y="-8"
     inkscape:window-maximized="1"
     inkscape:current-layer="svg3733" /><defs
     id="defs3728"><style
       type="text/css"
       id="style3726">
   <![CDATA[
    .fil0 {fill:#008DD2}
   ]]>
  </style></defs><g
     id="Ebene_x0020_1"><path
       class="fil0"
       d="M21.2737 78.7261c-15.8649,-15.8649 -15.8648,-41.5873 0.0003,-57.4523 15.8648,-15.865 41.5872,-15.865 57.452,0 15.8651,15.865 15.8651,41.5873 0.0001,57.4522 -15.8649,15.865 -41.5874,15.8652 -57.4524,0.0001zm-2.2094 2.2097c-17.0852,-17.0854 -17.0852,-44.786 0.0001,-61.8715 17.0854,-17.0851 44.786,-17.0851 61.8714,0 17.0852,17.0854 17.0851,44.786 -0.0001,61.8713 -17.0855,17.0853 -44.786,17.0854 -61.8714,0.0002zm30.9356 -52.8105c-47.6813,0 41.6653,0 0,0zm0.0896 43.7489c-0.7855,-0.0053 -1.5633,-0.0434 -2.3317,-0.1132 -1.8885,-0.1924 -3.7056,-0.6252 -5.4208,-1.267 0.7769,-0.1232 1.0427,-0.7484 1.0427,-1.3201 0,-0.6548 0.0138,-2.4832 0,-4.7848 -7.6647,1.6671 -9.2533,-3.629 -9.2533,-3.629 -1.2521,-3.1851 -3.0576,-4.0314 -3.0576,-4.0314 -2.5018,-1.7092 0.1876,-1.6775 0.1876,-1.6775 2.7651,0.1954 4.2228,2.8418 4.2228,2.8418 2.4583,4.2077 6.4486,2.9931 8.0178,2.2899 0.2515,-1.7816 0.965,-2.9966 1.7521,-3.6847 -6.119,-0.6964 -12.5525,-3.06 -12.5525,-13.6202 0,-3.0101 1.0733,-5.4691 2.8359,-7.3942 -0.2844,-0.6969 -1.2317,-3.4995 0.2704,-7.295 0,0 2.3134,-0.7403 7.5768,2.8271 2.1981,-0.6114 4.5569,-0.9161 6.8996,-0.9269 2.3415,0.0108 4.6988,0.3155 6.8994,0.9269 5.2625,-3.5659 7.5744,-2.8271 7.5744,-2.8271 1.5007,3.7955 0.5552,6.5981 0.2725,7.295 1.7629,1.9251 2.8334,4.3841 2.8334,7.3942 0,10.5885 -6.4438,12.917 -12.5849,13.5968 0.9894,0.8531 1.888,2.5067 1.888,5.0774 0,3.4458 0,6.7231 0,7.628 0,0.4862 0.1934,1.0067 0.7268,1.2278 -2.4209,0.9368 -5.0502,1.4552 -7.7994,1.4662z"
       id="path3730" /></g><path
     style="fill:#008000;stroke-width:0.44465029"
     d="m 183.64057,271.15653 c -6.19256,-0.337 -12.92256,-1.52587 -18.79409,-3.32001 l -3.8983,-1.19118 1.45273,-1.21208 1.45273,-1.21206 0.13437,-10.55277 0.13438,-10.55277 -1.09982,0.27603 c -4.98472,1.25109 -13.54501,1.15897 -18.65479,-0.20074 -6.4412,-1.714 -12.23993,-6.90108 -15.20163,-13.59813 -3.50595,-7.92774 -6.21726,-11.44689 -12.45768,-16.16949 -1.91297,-1.44769 -2.6946,-2.34491 -2.79487,-3.2082 -0.11621,-1.00058 0.0673,-1.24387 1.11163,-1.47344 0.68795,-0.15124 1.53555,-0.36531 1.88355,-0.47572 1.17965,-0.37427 5.58006,0.80316 8.22413,2.20055 3.35862,1.77504 6.13563,4.49345 9.1365,8.9437 1.31011,1.94287 3.22723,4.35395 4.26026,5.35795 4.02306,3.90996 9.87279,5.90884 15.89838,5.43255 3.0201,-0.23872 9.0019,-1.77755 9.78345,-2.51681 0.19682,-0.18617 0.64815,-1.58286 1.00295,-3.10375 0.8351,-3.57972 2.4386,-6.9345 4.42218,-9.25186 l 1.58372,-1.85023 -1.68243,-0.2746 c -6.98617,-1.14023 -12.02464,-2.23833 -15.33831,-3.34288 -20.43924,-6.81302 -30.21934,-21.97489 -30.25024,-46.89625 -0.008,-6.20785 0.13433,-7.65628 1.11461,-11.36686 1.33826,-5.06563 3.88598,-10.31243 7.0146,-14.44591 l 2.28167,-3.01449 -0.81607,-2.70541 c -0.64773,-2.14734 -0.80996,-4.12709 -0.78649,-9.59749 0.0266,-6.20074 0.15203,-7.29254 1.25029,-10.88437 0.67139,-2.19577 1.31078,-4.08237 1.42087,-4.19247 0.42928,-0.42928 5.71552,-0.0163 8.27241,0.64623 4.06813,1.05416 9.94605,3.72918 15.4296,7.02195 l 4.92039,2.95461 3.68072,-0.88237 c 13.61238,-3.26325 31.12432,-3.25719 44.77689,0.0155 l 3.74555,0.89785 2.43126,-1.61426 c 8.84239,-5.87102 20.75238,-10.2231 24.92375,-9.10751 1.32404,0.3541 2.41258,3.18637 3.40786,8.86684 1.03516,5.90813 0.61862,13.02757 -1.01534,17.35377 -0.34534,0.91436 -0.0542,1.53258 1.98952,4.22418 2.85785,3.76388 5.49602,9.02676 6.81857,13.60234 1.23191,4.262 1.66952,14.89295 0.87421,21.23753 -1.06167,8.46955 -3.90259,16.7864 -7.53982,22.07293 -6.68341,9.714 -18.01907,15.95593 -33.21507,18.28972 -6.55947,1.0074 -6.24467,0.7975 -4.47415,2.98335 1.75759,2.16989 2.69167,3.89996 4.00133,7.41106 0.86888,2.3294 0.94209,3.66288 1.17393,21.38198 0.25599,19.56465 0.32393,20.25029 2.13933,21.58943 0.48658,0.35893 -0.44064,0.80351 -3.96332,1.90032 -9.60546,2.99071 -19.37139,4.14121 -30.1659,3.55376 z"
     id="path3739"
     inkscape:connector-curvature="0"
     transform="scale(0.26458333)" /><path
     style="fill:#008000;stroke-width:0.44465029"
     d="M 173.63594,353.44983 C 104.1169,346.99422 45.521891,296.66158 28.751058,228.99491 23.343714,207.17744 22.456698,183.0146 26.245466,160.74108 36.266567,101.82875 78.824097,51.980099 135.53929,32.722612 c 17.92958,-6.08794 33.98185,-8.701975 53.43709,-8.701975 15.00326,0 26.33845,1.339885 40.01853,4.730421 54.0186,13.388229 98.09763,53.852082 116.17298,106.644962 4.22349,12.33558 7.1491,26.03363 8.3097,38.9069 0.59413,6.59 0.59283,22.77873 -0.002,29.34692 -4.50157,49.67621 -30.80567,94.19337 -72.23405,122.24895 -22.95484,15.54517 -49.69434,25.04853 -77.59148,27.57645 -5.90654,0.53522 -24.14284,0.51979 -30.0139,-0.0254 z m 24.90042,-11.08703 c 32.76591,-2.20491 63.27467,-14.19307 87.98113,-34.57146 5.79893,-4.78308 15.21758,-14.13974 20.23576,-20.1026 19.41508,-23.06996 31.3702,-51.00163 35.01814,-81.81565 1.03408,-8.73482 1.03529,-25.04081 0.003,-33.79342 -4.71399,-39.94872 -23.64827,-75.265137 -54.08532,-100.880165 -56.86128,-47.852991 -140.56344,-47.852991 -197.424729,0 -5.962854,5.018181 -15.319519,14.43683 -20.102596,20.235764 -27.361634,33.172841 -39.519593,77.047141 -33.234033,119.931301 5.456626,37.22864 24.32351,70.96999 53.336629,95.38668 30.036829,25.27822 69.402639,38.22519 108.272349,35.60955 z"
     id="path3741"
     inkscape:connector-curvature="0"
     transform="scale(0.26458333)" /></svg>