<?xml version="1.0" encoding="UTF-8" standalone="no"?>
<svg
   xmlns:dc="http://purl.org/dc/elements/1.1/"
   xmlns:cc="http://creativecommons.org/ns#"
   xmlns:rdf="http://www.w3.org/1999/02/22-rdf-syntax-ns#"
   xmlns:svg="http://www.w3.org/2000/svg"
   xmlns="http://www.w3.org/2000/svg"
   xmlns:sodipodi="http://sodipodi.sourceforge.net/DTD/sodipodi-0.dtd"
   xmlns:inkscape="http://www.inkscape.org/namespaces/inkscape"
   width="1024"
   height="1024"
   viewBox="0 0 1024 1024"
   fill="none"
   version="1.1"
   id="svg4"
   sodipodi:docname="github.svg"
   inkscape:version="0.92.4 (5da689c313, 2019-01-14)">
  <metadata
     id="metadata10">
    <rdf:RDF>
      <cc:Work
         rdf:about="">
        <dc:format>image/svg+xml</dc:format>
        <dc:type
           rdf:resource="http://purl.org/dc/dcmitype/StillImage" />
      </cc:Work>
    </rdf:RDF>
  </metadata>
  <defs
     id="defs8" />
  <sodipodi:namedview
     pagecolor="#ffffff"
     bordercolor="#666666"
     borderopacity="1"
     objecttolerance="10"
     gridtolerance="10"
     guidetolerance="10"
     inkscape:pageopacity="0"
     inkscape:pageshadow="2"
     inkscape:window-width="640"
     inkscape:window-height="480"
     id="namedview6"
     showgrid="false"
     inkscape:zoom="0.23046875"
     inkscape:cx="512"
     inkscape:cy="512"
     inkscape:window-x="0"
     inkscape:window-y="0"
     inkscape:window-maximized="0"
     inkscape:current-layer="svg4" />
  <path
     d="m 512,43.389831 c -261.3044,0 -472.949153,215.184349 -472.949153,480.858869 0,212.78005 135.381693,392.50106 323.378983,456.21486 23.64746,4.20751 32.51526,-10.21825 32.51526,-22.8408 0,-11.4204 -0.59119,-49.28803 -0.59119,-89.55996 -118.82847,22.23972 -149.57017,-29.45261 -159.02915,-56.50092 -5.32068,-13.82469 -28.37695,-56.50092 -48.47729,-67.92132 -16.55322,-9.0161 -40.20068,-31.25582 -0.59119,-31.8569 37.24475,-0.60107 63.84814,34.86227 72.71594,49.28804 42.56542,72.7299 110.55186,52.2934 137.74644,39.67085 4.1383,-31.25582 16.55322,-52.2934 30.15051,-64.31487 -105.23119,-12.02147 -215.19187,-53.49555 -215.19187,-237.42407 0,-52.2934 18.32678,-95.5707 48.47729,-129.23082 -4.72949,-12.02147 -21.28271,-61.30951 4.72949,-127.4276 0,0 39.60949,-12.62255 130.06102,49.28803 37.83593,-10.81932 78.03661,-16.22898 118.23729,-16.22898 40.20067,0 80.40135,5.40966 118.23728,16.22898 90.45153,-62.51165 130.06102,-49.28803 130.06102,-49.28803 26.0122,66.11809 9.45898,115.40613 4.72949,127.4276 30.15051,33.66012 48.47729,76.33635 48.47729,129.23082 0,184.52959 -110.55186,225.4026 -215.78305,237.42407 17.14441,15.02684 31.92407,43.87837 31.92407,88.95889 0,64.31487 -0.59119,116.0072 -0.59119,132.23619 0,12.62255 8.8678,27.64939 32.51525,22.8408 C 849.56746,916.74976 984.94916,736.42768 984.94916,524.2487 984.94916,258.57418 773.30441,43.389831 512,43.389831 Z"
     id="path2"
     inkscape:connector-curvature="0"
     style="clip-rule:evenodd;fill:#1b1f23;fill-rule:evenodd;stroke-width:59.61095047" />
</svg>
