<?xml version="1.0" encoding="UTF-8" standalone="no"?>
<svg
   xmlns:dc="http://purl.org/dc/elements/1.1/"
   xmlns:cc="http://creativecommons.org/ns#"
   xmlns:rdf="http://www.w3.org/1999/02/22-rdf-syntax-ns#"
   xmlns:svg="http://www.w3.org/2000/svg"
   xmlns="http://www.w3.org/2000/svg"
   xmlns:sodipodi="http://sodipodi.sourceforge.net/DTD/sodipodi-0.dtd"
   xmlns:inkscape="http://www.inkscape.org/namespaces/inkscape"
   width="26"
   height="26"
   viewBox="0 0 26 26"
   version="1.1"
   id="svg4"
   sodipodi:docname="portfolio.svg"
   inkscape:version="0.92.4 (5da689c313, 2019-01-14)">
  <metadata
     id="metadata10">
    <rdf:RDF>
      <cc:Work
         rdf:about="">
        <dc:format>image/svg+xml</dc:format>
        <dc:type
           rdf:resource="http://purl.org/dc/dcmitype/StillImage" />
      </cc:Work>
    </rdf:RDF>
  </metadata>
  <defs
     id="defs8" />
  <sodipodi:namedview
     pagecolor="#ffffff"
     bordercolor="#666666"
     borderopacity="1"
     objecttolerance="10"
     gridtolerance="10"
     guidetolerance="10"
     inkscape:pageopacity="0"
     inkscape:pageshadow="2"
     inkscape:window-width="1412"
     inkscape:window-height="818"
     id="namedview6"
     showgrid="false"
     inkscape:zoom="9.0769231"
     inkscape:cx="13"
     inkscape:cy="13"
     inkscape:window-x="0"
     inkscape:window-y="0"
     inkscape:window-maximized="0"
     inkscape:current-layer="svg4" />
  <path
     d="m 13.062115,1.8728814 c -4.9119599,0 -9.0912108,3.1907458 -10.5310993,7.5889831 H 4.3393863 C 4.5802187,8.8564322 4.8861525,8.2853613 5.2435716,7.7490731 c 0.052762,0.010119 0.1042473,0.026351 0.1595622,0.026351 H 6.9987549 C 6.8294063,8.3100255 6.6881406,8.8791992 6.5732559,9.4618645 H 8.3284392 C 8.4603439,8.8724534 8.613949,8.3015933 8.8071255,7.7754238 h 8.5099795 c 0.193177,0.5261695 0.346782,1.0970296 0.478686,1.6864407 h 1.755184 C 19.43609,8.8791992 19.294824,8.3100255 19.125476,7.7754238 h 1.595621 c 0.05532,0 0.105949,-0.016232 0.159562,-0.026351 0.355717,0.5362882 0.663353,1.1073591 0.904185,1.7127914 h 1.808371 C 22.154177,5.0636272 17.974076,1.8728814 13.062115,1.8728814 Z m 0,1.6864407 c 1.319898,0 2.538953,0.9730762 3.45718,2.529661 H 9.6049361 C 10.523163,4.5323983 11.742217,3.5593221 13.062115,3.5593221 Z M 8.3816265,4.797802 C 8.1195192,5.1932723 7.8831545,5.6311145 7.663597,6.0889831 H 6.653037 C 7.1781027,5.5990721 7.7535901,5.1587003 8.3816265,4.797802 Z m 9.3609775,0 c 0.629739,0.3608983 1.203524,0.8012701 1.72859,1.2911811 h -1.01056 C 18.241076,5.6311145 18.005562,5.1932723 17.742604,4.797802 Z M 2.2118915,11.069253 c -0.032763,0.01486 -0.057655,0.05165 -0.079781,0.07905 -0.044252,0.05481 -0.052124,0.122056 -0.026594,0.184455 l 1.3296843,3.188426 c 0.03404,0.08011 0.1131827,0.131753 0.2127495,0.131753 H 4.36598 c 0.094461,0 0.1770076,-0.05502 0.2127495,-0.131753 L 5.296759,13.0192 c 0.063825,-0.139975 0.124033,-0.291122 0.1861558,-0.447961 0.056166,0.142504 0.120629,0.271517 0.1861558,0.42161 l 0.6648422,1.528337 c 0.03404,0.07842 0.1165867,0.131753 0.2127494,0.131753 h 0.7446232 c 0.096163,0 0.1778586,-0.05249 0.2127495,-0.131753 L 8.9135003,11.33276 c 0.027232,-0.06324 0.018509,-0.127116 -0.026594,-0.184455 -0.044252,-0.05481 -0.108715,-0.07905 -0.1861558,-0.07905 H 7.9029402 c -0.099567,0 -0.1804116,0.04912 -0.2127495,0.131753 l -0.6382484,1.607389 c -0.055315,0.142504 -0.09127,0.249171 -0.1329685,0.368909 -0.050209,-0.126483 -0.09829,-0.251912 -0.1595621,-0.39526 L 6.0679759,11.201006 C 6.033085,11.121744 5.9530912,11.069253 5.8552264,11.069253 H 5.1903843 c -0.096163,0 -0.2044523,0.05333 -0.2393432,0.131753 L 4.2330116,12.808395 C 4.1742926,12.94584 4.1245093,13.080544 4.0734495,13.203654 4.0317505,13.080544 3.9889875,12.944996 3.940481,12.808395 L 3.35542,11.201006 C 3.324784,11.116684 3.2456412,11.069253 3.1426705,11.069253 H 2.3182663 c -0.038295,0 -0.073611,-0.01486 -0.1063748,0 z m 7.6057941,0 c -0.03287,0.01497 -0.084249,0.05207 -0.1063748,0.07905 -0.044252,0.05481 -0.052124,0.122056 -0.026594,0.184455 l 1.3296839,3.188426 c 0.03404,0.08011 0.114034,0.131753 0.21275,0.131753 h 0.744623 c 0.09531,0 0.177008,-0.05502 0.21275,-0.131753 L 12.902553,13.0192 c 0.06382,-0.139975 0.124033,-0.291122 0.186156,-0.447961 0.05617,0.142504 0.09318,0.271517 0.159562,0.42161 l 0.691436,1.528337 c 0.03489,0.07842 0.116587,0.131753 0.21275,0.131753 h 0.718029 c 0.09531,0 0.177859,-0.05249 0.21275,-0.131753 l 1.436059,-3.188426 c 0.02808,-0.06324 0.01851,-0.127116 -0.02659,-0.184455 -0.04255,-0.05481 -0.134458,-0.07905 -0.21275,-0.07905 h -0.771216 c -0.09957,0 -0.207006,0.04912 -0.239344,0.131753 l -0.611654,1.607389 c -0.05617,0.142504 -0.116162,0.249171 -0.159563,0.368909 -0.04936,-0.126483 -0.09914,-0.251912 -0.159562,-0.39526 L 13.67377,11.201006 c -0.03404,-0.07926 -0.141478,-0.131753 -0.239343,-0.131753 h -0.664842 c -0.09701,0 -0.17871,0.05333 -0.21275,0.131753 l -0.718029,1.607389 c -0.05872,0.137445 -0.109354,0.272149 -0.159562,0.395259 -0.0434,-0.12311 -0.08446,-0.258658 -0.132969,-0.395259 l -0.585061,-1.607389 c -0.03064,-0.08432 -0.136372,-0.131753 -0.239343,-0.131753 H 9.9240603 c -0.037869,0 -0.073505,-0.01497 -0.1063747,0 z m 7.5792004,0 c -0.03298,0.01486 -0.05766,0.05165 -0.07978,0.07905 -0.04425,0.05481 -0.05127,0.122056 -0.02659,0.184455 l 1.329685,3.188426 c 0.03404,0.08011 0.113182,0.131753 0.212749,0.131753 h 0.71803 c 0.09446,0 0.177007,-0.05502 0.212749,-0.131753 l 0.71803,-1.501986 c 0.06383,-0.139975 0.124033,-0.291122 0.186156,-0.447961 0.05617,0.142504 0.119777,0.271517 0.186155,0.42161 l 0.664842,1.528337 c 0.03404,0.07842 0.116587,0.131753 0.21275,0.131753 h 0.744623 c 0.09616,0 0.177008,-0.05249 0.21275,-0.131753 L 24.0985,11.33276 c 0.02723,-0.06324 0.01681,-0.127116 -0.02659,-0.184455 -0.0434,-0.05481 -0.107864,-0.07905 -0.186156,-0.07905 h -0.79781 c -0.100418,0 -0.181263,0.04912 -0.21275,0.131753 l -0.638248,1.607389 c -0.05532,0.142504 -0.09127,0.249171 -0.132968,0.368909 -0.05021,-0.126483 -0.09829,-0.251912 -0.159563,-0.39526 l -0.691444,-1.581038 c -0.03404,-0.07926 -0.114885,-0.131753 -0.21275,-0.131753 h -0.691436 c -0.09701,0 -0.177858,0.05333 -0.212749,0.131753 l -0.71803,1.607389 c -0.05872,0.137445 -0.109353,0.272149 -0.159562,0.395259 -0.04255,-0.12311 -0.08446,-0.258658 -0.132968,-0.395259 l -0.585061,-1.607389 c -0.02979,-0.08432 -0.109779,-0.131753 -0.21275,-0.131753 h -0.824404 c -0.03829,0 -0.0734,-0.01486 -0.106375,0 z M 2.5310157,16.207627 c 1.4398885,4.398237 5.6191394,7.588983 10.5310993,7.588983 4.911961,0 9.092062,-3.190746 10.5311,-7.588983 h -1.808371 c -0.240832,0.606275 -0.547617,1.17566 -0.904185,1.712791 -0.05276,-0.01012 -0.104247,-0.02635 -0.159562,-0.02635 h -1.595621 c 0.169348,-0.534601 0.28402,-1.103775 0.398905,-1.68644 h -1.72859 c -0.131053,0.589411 -0.285509,1.161114 -0.478686,1.68644 H 8.8071255 C 8.613949,17.368741 8.4603439,16.797038 8.3284392,16.207627 H 6.5998496 c 0.1148847,0.582665 0.2295567,1.151839 0.3989053,1.68644 H 5.4031338 c -0.055315,0 -0.1068003,0.01623 -0.1595622,0.02635 -0.3565681,-0.53713 -0.6633529,-1.106515 -0.9041853,-1.71279 z m 4.1220213,3.372881 h 1.01056 c 0.2195575,0.457869 0.4559222,0.896554 0.7180295,1.291181 C 7.7527391,20.510791 7.1781027,20.070419 6.653037,19.580508 Z m 2.9518991,0 h 6.9143589 c -0.917376,1.556585 -2.137282,2.529661 -3.45718,2.529661 -1.319898,0 -2.538952,-0.973076 -3.4571789,-2.529661 z m 8.8556979,0 h 1.01056 c -0.525917,0.489911 -1.099702,0.930283 -1.72859,1.291181 0.262958,-0.394627 0.498472,-0.833312 0.71803,-1.291181 z"
     id="path2"
     inkscape:connector-curvature="0"
     style="stroke-width:0.8471002" />
  <path
     style="fill:#ff00ff;stroke-width:0.11016949"
     d="M 2.7615859,8.9733051 C 4.2197891,5.4784237 6.9733831,3.0967295 10.586519,2.2052055 c 1.456224,-0.3593163 3.653606,-0.3330489 5.156701,0.061643 1.823605,0.478853 3.482152,1.375716 4.850092,2.6226979 1.098863,1.0016965 2.300464,2.7775511 2.759267,4.0779372 l 0.147816,0.4189571 -0.848926,-0.00811 -0.848927,-0.00811 -0.394771,-0.7906209 -0.39477,-0.790621 -0.954806,-0.031832 c -0.525143,-0.017507 -0.954217,0.00728 -0.953497,0.055085 7.19e-4,0.047804 0.0745,0.3595858 0.163946,0.6928485 0.244276,0.9100787 0.264904,0.8813872 -0.633474,0.881105 L 17.836441,9.3859363 17.616102,8.5874584 17.395763,7.788983 13.080886,7.7601703 8.7660094,7.7313575 8.6012565,8.255933 C 8.5106424,8.5444495 8.4063712,8.9168432 8.3695427,9.0834745 8.3037805,9.3810169 8.2878272,9.3864406 7.4784096,9.3864406 c -0.4532947,0 -0.8235839,-0.037182 -0.8228647,-0.082627 C 6.6562641,9.2583686 6.7300401,8.9485169 6.8194916,8.6152542 7.0660958,7.6964989 7.0983617,7.7338983 6.0591125,7.7338983 H 5.1334793 l -0.423943,0.8257986 -0.423943,0.8257987 -0.848192,4.725e-4 -0.848192,4.725e-4 z M 8.0572245,5.4869846 C 8.2576911,5.1297838 8.3987046,4.8145236 8.3705875,4.7864067 8.270513,4.6863322 6.6542373,5.9239592 6.6542373,6.1006634 c 0,0.056614 0.2336631,0.087824 0.5192512,0.069356 0.5084779,-0.032882 0.5268135,-0.047053 0.883736,-0.6830348 z M 16.486895,6.1272294 C 16.596919,6.0172045 16.11457,5.3054329 15.511115,4.6873371 14.148258,3.2914148 12.35146,3.1572793 10.996136,4.3502828 10.379111,4.8934106 9.6288136,5.8185117 9.6288136,6.0361642 c 0,0.1303428 0.5470144,0.1553612 3.3968924,0.1553612 1.868292,0 3.425826,-0.028933 3.461189,-0.064296 z m 2.947003,-0.034461 c 0,-0.1951274 -1.593546,-1.437617 -1.695556,-1.3220263 -0.02119,0.024015 0.132996,0.3535161 0.342642,0.7322238 0.378058,0.6829265 0.38515,0.6885593 0.867045,0.6885593 0.267228,0 0.485869,-0.044441 0.485869,-0.098757 z"
     id="path7"
     inkscape:connector-curvature="0" />
  <path
     style="fill:#ff00ff;stroke-width:0.11016949"
     d="m 18.018322,12.93441 c -0.372704,-0.896498 -0.677644,-1.667521 -0.677644,-1.713385 0,-0.04586 0.255645,-0.0684 0.5681,-0.05009 l 0.568099,0.0333 0.360369,0.974372 c 0.198203,0.535905 0.381195,0.995199 0.40665,1.020654 0.02546,0.02545 0.248675,-0.413013 0.496045,-0.974372 l 0.449764,-1.020654 0.487568,-0.03293 c 0.48648,-0.03286 0.488079,-0.03175 0.716398,0.495763 0.125857,0.290781 0.337861,0.773745 0.471121,1.073254 l 0.24229,0.544561 0.413512,-1.040324 0.413512,-1.040324 0.563455,-0.0333 c 0.309901,-0.01831 0.563456,5.7e-4 0.563456,0.04197 0,0.0414 -0.328395,0.812419 -0.729766,1.713385 l -0.729765,1.638119 -0.509641,-0.0025 -0.509642,-0.0025 -0.424301,-0.989011 c -0.233366,-0.543955 -0.456459,-0.986554 -0.495763,-0.983551 -0.0393,0.003 -0.280198,0.449188 -0.535321,0.991525 l -0.463859,0.986067 h -0.483496 -0.483496 z"
     id="path9"
     inkscape:connector-curvature="0" />
  <path
     style="fill:#ff00ff;stroke-width:0.11016949"
     d="M 10.413266,12.939407 C 10.040765,12.045657 9.7366651,11.277225 9.7374876,11.23178 9.7383101,11.18633 10.000662,11.14915 10.320491,11.14915 h 0.581508 l 0.370261,1.053315 c 0.203643,0.579324 0.40455,1.013117 0.446459,0.963984 0.04191,-0.04913 0.266995,-0.525479 0.500192,-1.058546 l 0.423993,-0.969212 0.488644,0.03277 0.488644,0.03277 0.383777,0.936441 c 0.211077,0.515042 0.421021,0.976076 0.466541,1.024519 0.04552,0.04844 0.256332,-0.372955 0.46847,-0.936441 l 0.385705,-1.024519 0.567318,-0.0333 c 0.312026,-0.01831 0.567319,0.01224 0.567319,0.06789 0,0.05565 -0.32955,0.829095 -0.732333,1.718758 l -0.732333,1.61757 -0.503747,-0.03292 -0.503747,-0.03292 -0.401065,-0.911862 c -0.220586,-0.501525 -0.432174,-0.942972 -0.470197,-0.980995 -0.03802,-0.03802 -0.275855,0.384709 -0.528517,0.939405 l -0.459385,1.008537 h -0.518729 -0.51873 z"
     id="path11"
     inkscape:connector-curvature="0" />
  <path
     style="fill:#ff00ff;stroke-width:0.11016949"
     d="M 2.8825271,13.049576 C 2.5387402,12.216419 2.2240381,11.445175 2.1831891,11.3357 2.1164728,11.1569 2.169059,11.140091 2.7001744,11.170446 l 0.5912562,0.03379 0.3772491,1.023222 c 0.2074869,0.562773 0.4094938,0.984171 0.4489041,0.936441 0.03941,-0.04773 0.2608666,-0.520574 0.4921251,-1.050764 l 0.42047,-0.963983 h 0.4784582 c 0.465652,0 0.4845025,0.01401 0.7042783,0.523305 0.1242011,0.287817 0.3375408,0.765775 0.4740882,1.062128 l 0.2482681,0.538823 0.4203824,-1.062128 0.4203823,-1.062128 h 0.5407954 c 0.2974374,0 0.5407954,0.04314 0.5407954,0.09588 0,0.05273 -0.3163712,0.808772 -0.7030472,1.680085 L 7.4515329,14.509322 H 6.9237806 6.3960283 L 5.9927736,13.60055 c -0.22179,-0.499824 -0.4364757,-0.941992 -0.4770793,-0.982596 -0.040604,-0.0406 -0.2814517,0.380738 -0.535218,0.936314 L 4.5190828,14.564407 H 4.0133385 3.5075942 Z"
     id="path13"
     inkscape:connector-curvature="0" />
  <path
     style="fill:#ff00ff;stroke-width:0.11016949"
     d="M 10.950847,23.550566 C 7.2449859,22.773998 4.1503583,20.206513 2.8086739,16.795339 l -0.2274926,-0.57839 h 0.8630368 0.8630367 l 0.162697,0.413136 c 0.089483,0.227224 0.2959306,0.623834 0.4587716,0.881356 l 0.2960746,0.46822 h 0.8799739 c 0.9743362,0 0.9769464,-0.0026 0.779882,-0.771186 -0.054375,-0.212077 -0.1294071,-0.521928 -0.1667387,-0.68856 l -0.067876,-0.302966 h 0.8164269 c 0.799826,0 0.8178842,0.0062 0.8880995,0.302966 0.03942,0.166632 0.1454989,0.563816 0.2357307,0.882632 l 0.164058,0.579665 4.3207047,-0.02882 4.320704,-0.02882 0.21685,-0.853813 0.216851,-0.853814 h 0.802216 c 0.906788,0 0.884587,-0.03202 0.636964,0.91867 -0.09089,0.348949 -0.165254,0.681611 -0.165254,0.739248 0,0.05795 0.413102,0.104794 0.924164,0.104794 h 0.924164 l 0.458532,-0.881356 0.458532,-0.881356 h 0.820693 c 0.451382,0 0.820695,0.02751 0.820695,0.06112 0,0.03362 -0.150711,0.415289 -0.334915,0.848159 -0.698741,1.642018 -2.182434,3.470823 -3.69242,4.55129 -0.905574,0.64798 -2.560316,1.429027 -3.629445,1.713117 -1.127575,0.29962 -3.817211,0.387359 -4.902543,0.159927 z m 3.401905,-1.708162 c 0.261763,-0.133542 0.695373,-0.445076 0.963578,-0.692299 0.459493,-0.423545 1.253162,-1.411675 1.253162,-1.560204 0,-0.03733 -1.561653,-0.06787 -3.470339,-0.06787 -2.55773,0 -3.4703394,0.03358 -3.4703394,0.127701 0,0.216726 0.8443144,1.259398 1.3659084,1.686805 1.037374,0.85005 2.308133,1.041481 3.35803,0.505864 z m -6.2967909,-1.65752 -0.3551136,-0.659183 -0.5233051,-0.0018 c -0.2878178,-10e-4 -0.5233036,0.03535 -0.5233019,0.08079 5.9e-6,0.147078 1.467402,1.239407 1.6649758,1.239407 0.050522,0 -0.067943,-0.296633 -0.2632552,-0.659184 z m 10.5434659,0.173377 c 0.374439,-0.267194 0.746233,-0.564652 0.826209,-0.661017 0.129647,-0.156215 0.08537,-0.17521 -0.40841,-0.17521 h -0.55382 l -0.341025,0.604263 c -0.508075,0.90026 -0.479179,0.914311 0.477046,0.231964 z"
     id="path15"
     inkscape:connector-curvature="0" />
</svg>
