<?xml version="1.0" encoding="UTF-8" standalone="no"?>
<!-- Generator: Adobe Illustrator 15.0.0, SVG Export Plug-In . SVG Version: 6.00 Build 0)  -->

<svg
   xmlns:dc="http://purl.org/dc/elements/1.1/"
   xmlns:cc="http://creativecommons.org/ns#"
   xmlns:rdf="http://www.w3.org/1999/02/22-rdf-syntax-ns#"
   xmlns:svg="http://www.w3.org/2000/svg"
   xmlns="http://www.w3.org/2000/svg"
   xmlns:sodipodi="http://sodipodi.sourceforge.net/DTD/sodipodi-0.dtd"
   xmlns:inkscape="http://www.inkscape.org/namespaces/inkscape"
   version="1.1"
   x="0px"
   y="0px"
   width="48px"
   height="48px"
   viewBox="0 0 48 48"
   enable-background="new 0 0 48 48"
   xml:space="preserve"
   id="svg4"
   sodipodi:docname="twitter.svg"
   inkscape:version="0.92.3 (2405546, 2018-03-11)"><metadata
   id="metadata10"><rdf:RDF><cc:Work
       rdf:about=""><dc:format>image/svg+xml</dc:format><dc:type
         rdf:resource="http://purl.org/dc/dcmitype/StillImage" /></cc:Work></rdf:RDF></metadata><defs
   id="defs8" /><sodipodi:namedview
   pagecolor="#ffffff"
   bordercolor="#666666"
   borderopacity="1"
   objecttolerance="10"
   gridtolerance="10"
   guidetolerance="10"
   inkscape:pageopacity="0"
   inkscape:pageshadow="2"
   inkscape:window-width="955"
   inkscape:window-height="598"
   id="namedview6"
   showgrid="false"
   inkscape:zoom="4.9166667"
   inkscape:cx="24"
   inkscape:cy="24"
   inkscape:window-x="702"
   inkscape:window-y="195"
   inkscape:window-maximized="0"
   inkscape:current-layer="svg4" />
<path
   d="m 42.813559,14.666288 c -1.323,0.586 -2.746,0.977 -4.247,1.162 1.526,-0.906 2.7,-2.351 3.251,-4.058 -1.428,0.837 -3.01,1.452 -4.693,1.776 -1.344,-1.425 -3.261,-2.309 -5.385,-2.309 -4.08,0 -7.387,3.278 -7.387,7.32 0,0.572 0.067,1.129 0.193,1.67 -6.138,-0.308 -11.582,-3.226 -15.2239997,-7.654 -0.64,1.082 -1,2.349 -1,3.686 0,2.541 1.301,4.778 3.2849997,6.096 -1.211,-0.037 -2.3509997,-0.374 -3.3489997,-0.914 0,0.022 0,0.055 0,0.086 0,3.551 2.5469997,6.508 5.9229997,7.181 -0.617,0.169 -1.269,0.263 -1.941,0.263 -0.477,0 -0.942,-0.054 -1.392,-0.135 0.94,2.902 3.667,5.023 6.898,5.086 -2.528,1.96 -5.712,3.134 -9.1739997,3.134 -0.598,0 -1.183,-0.034 -1.761,-0.104 3.2709997,2.071 7.1549997,3.285 11.3239997,3.285 13.585,0 21.017,-11.156 21.017,-20.834 0,-0.317 -0.01,-0.633 -0.025,-0.945 1.45,-1.024 2.7,-2.316 3.687,-3.792"
   id="path2"
   inkscape:connector-curvature="0"
   style="fill:#03a9f4" />
</svg>