<?xml version="1.0" encoding="UTF-8" standalone="no"?>
<svg
   xmlns:dc="http://purl.org/dc/elements/1.1/"
   xmlns:cc="http://creativecommons.org/ns#"
   xmlns:rdf="http://www.w3.org/1999/02/22-rdf-syntax-ns#"
   xmlns:svg="http://www.w3.org/2000/svg"
   xmlns="http://www.w3.org/2000/svg"
   xmlns:sodipodi="http://sodipodi.sourceforge.net/DTD/sodipodi-0.dtd"
   xmlns:inkscape="http://www.inkscape.org/namespaces/inkscape"
   width="256px"
   height="209px"
   viewBox="0 0 256 209"
   version="1.1"
   preserveAspectRatio="xMidYMid"
   id="svg6"
   sodipodi:docname="twitter.svg"
   inkscape:version="0.92.4 (5da689c313, 2019-01-14)">
  <metadata
     id="metadata12">
    <rdf:RDF>
      <cc:Work
         rdf:about="">
        <dc:format>image/svg+xml</dc:format>
        <dc:type
           rdf:resource="http://purl.org/dc/dcmitype/StillImage" />
      </cc:Work>
    </rdf:RDF>
  </metadata>
  <defs
     id="defs10" />
  <sodipodi:namedview
     pagecolor="#ffffff"
     bordercolor="#666666"
     borderopacity="1"
     objecttolerance="10"
     gridtolerance="10"
     guidetolerance="10"
     inkscape:pageopacity="0"
     inkscape:pageshadow="2"
     inkscape:window-width="640"
     inkscape:window-height="480"
     id="namedview8"
     showgrid="false"
     inkscape:zoom="1.1291866"
     inkscape:cx="128"
     inkscape:cy="104.5"
     inkscape:window-x="0"
     inkscape:window-y="0"
     inkscape:window-maximized="0"
     inkscape:current-layer="svg6" />
  <g
     id="g4"
     transform="matrix(0.88930086,0,0,0.88506835,15.940676,11.607186)">
    <path
       d="m 256,25.450026 c -9.41916,4.177241 -19.54155,7.000461 -30.16584,8.270207 C 236.6785,27.219805 245.00583,16.926993 248.92744,4.6630769 238.77976,10.681263 227.53932,15.052338 215.57599,17.408298 205.99483,7.2006971 192.34506,0.822 177.2392,0.822 c -29.0066,0 -52.52312,23.515593 -52.52312,52.520312 0,4.116376 0.46538,8.125066 1.36057,11.968952 C 82.425838,63.121045 43.725725,42.211429 17.821398,10.435929 c -4.520897,7.757065 -7.110955,16.779194 -7.110955,26.40436 0,18.221237 9.273082,34.297202 23.365771,43.715425 -8.610118,-0.27249 -16.708029,-2.635005 -23.789956,-6.568785 -0.0037,0.219116 -0.0037,0.439168 -0.0037,0.660156 0,25.447365 18.104188,46.675355 42.131051,51.499645 -4.407594,1.20045 -9.047412,1.84188 -13.83799,1.84188 -3.384118,0 -6.674596,-0.32867 -9.8808,-0.94201 6.683024,20.86654 26.079432,36.05106 49.062219,36.47525 -17.974966,14.08613 -40.621588,22.48275 -65.228077,22.48275 -4.2390434,0 -8.4200303,-0.24814 -12.528915,-0.73319 23.243103,14.90173 50.850726,23.59612 80.510919,23.59612 96.605615,0 149.433065,-80.03055 149.433065,-149.43493 0,-2.277303 -0.0506,-4.542434 -0.1517,-6.794455 C 240.05326,45.233164 248.95834,35.982554 256,25.450026"
       id="path2"
       inkscape:connector-curvature="0"
       style="fill:#55acee" />
  </g>
</svg>
