<?xml version="1.0" encoding="UTF-8" standalone="no"?>
<svg
   xmlns:dc="http://purl.org/dc/elements/1.1/"
   xmlns:cc="http://creativecommons.org/ns#"
   xmlns:rdf="http://www.w3.org/1999/02/22-rdf-syntax-ns#"
   xmlns:svg="http://www.w3.org/2000/svg"
   xmlns="http://www.w3.org/2000/svg"
   xmlns:sodipodi="http://sodipodi.sourceforge.net/DTD/sodipodi-0.dtd"
   xmlns:inkscape="http://www.inkscape.org/namespaces/inkscape"
   width="26"
   height="26"
   viewBox="0 0 26 26"
   version="1.1"
   id="svg4"
   sodipodi:docname="website.svg"
   inkscape:version="0.92.3 (2405546, 2018-03-11)">
  <metadata
     id="metadata10">
    <rdf:RDF>
      <cc:Work
         rdf:about="">
        <dc:format>image/svg+xml</dc:format>
        <dc:type
           rdf:resource="http://purl.org/dc/dcmitype/StillImage" />
      </cc:Work>
    </rdf:RDF>
  </metadata>
  <defs
     id="defs8" />
  <sodipodi:namedview
     pagecolor="#ffffff"
     bordercolor="#666666"
     borderopacity="1"
     objecttolerance="10"
     gridtolerance="10"
     guidetolerance="10"
     inkscape:pageopacity="0"
     inkscape:pageshadow="2"
     inkscape:window-width="1412"
     inkscape:window-height="818"
     id="namedview6"
     showgrid="false"
     inkscape:zoom="9.0769231"
     inkscape:cx="13"
     inkscape:cy="13"
     inkscape:window-x="0"
     inkscape:window-y="0"
     inkscape:window-maximized="0"
     inkscape:current-layer="svg4" />
  <path
     d="m 13.062115,1.8728814 c -4.9119599,0 -9.0912108,3.1907458 -10.5310993,7.5889831 H 4.3393863 C 4.5802187,8.8564322 4.8861525,8.2853613 5.2435716,7.7490731 c 0.052762,0.010119 0.1042473,0.026351 0.1595622,0.026351 H 6.9987549 C 6.8294063,8.3100255 6.6881406,8.8791992 6.5732559,9.4618645 H 8.3284392 C 8.4603439,8.8724534 8.613949,8.3015933 8.8071255,7.7754238 h 8.5099795 c 0.193177,0.5261695 0.346782,1.0970296 0.478686,1.6864407 h 1.755184 C 19.43609,8.8791992 19.294824,8.3100255 19.125476,7.7754238 h 1.595621 c 0.05532,0 0.105949,-0.016232 0.159562,-0.026351 0.355717,0.5362882 0.663353,1.1073591 0.904185,1.7127914 h 1.808371 C 22.154177,5.0636272 17.974076,1.8728814 13.062115,1.8728814 Z m 0,1.6864407 c 1.319898,0 2.538953,0.9730762 3.45718,2.529661 H 9.6049361 C 10.523163,4.5323983 11.742217,3.5593221 13.062115,3.5593221 Z M 8.3816265,4.797802 C 8.1195192,5.1932723 7.8831545,5.6311145 7.663597,6.0889831 H 6.653037 C 7.1781027,5.5990721 7.7535901,5.1587003 8.3816265,4.797802 Z m 9.3609775,0 c 0.629739,0.3608983 1.203524,0.8012701 1.72859,1.2911811 h -1.01056 C 18.241076,5.6311145 18.005562,5.1932723 17.742604,4.797802 Z M 2.2118915,11.069253 c -0.032763,0.01486 -0.057655,0.05165 -0.079781,0.07905 -0.044252,0.05481 -0.052124,0.122056 -0.026594,0.184455 l 1.3296843,3.188426 c 0.03404,0.08011 0.1131827,0.131753 0.2127495,0.131753 H 4.36598 c 0.094461,0 0.1770076,-0.05502 0.2127495,-0.131753 L 5.296759,13.0192 c 0.063825,-0.139975 0.124033,-0.291122 0.1861558,-0.447961 0.056166,0.142504 0.120629,0.271517 0.1861558,0.42161 l 0.6648422,1.528337 c 0.03404,0.07842 0.1165867,0.131753 0.2127494,0.131753 h 0.7446232 c 0.096163,0 0.1778586,-0.05249 0.2127495,-0.131753 L 8.9135003,11.33276 c 0.027232,-0.06324 0.018509,-0.127116 -0.026594,-0.184455 -0.044252,-0.05481 -0.108715,-0.07905 -0.1861558,-0.07905 H 7.9029402 c -0.099567,0 -0.1804116,0.04912 -0.2127495,0.131753 l -0.6382484,1.607389 c -0.055315,0.142504 -0.09127,0.249171 -0.1329685,0.368909 -0.050209,-0.126483 -0.09829,-0.251912 -0.1595621,-0.39526 L 6.0679759,11.201006 C 6.033085,11.121744 5.9530912,11.069253 5.8552264,11.069253 H 5.1903843 c -0.096163,0 -0.2044523,0.05333 -0.2393432,0.131753 L 4.2330116,12.808395 C 4.1742926,12.94584 4.1245093,13.080544 4.0734495,13.203654 4.0317505,13.080544 3.9889875,12.944996 3.940481,12.808395 L 3.35542,11.201006 C 3.324784,11.116684 3.2456412,11.069253 3.1426705,11.069253 H 2.3182663 c -0.038295,0 -0.073611,-0.01486 -0.1063748,0 z m 7.6057941,0 c -0.03287,0.01497 -0.084249,0.05207 -0.1063748,0.07905 -0.044252,0.05481 -0.052124,0.122056 -0.026594,0.184455 l 1.3296839,3.188426 c 0.03404,0.08011 0.114034,0.131753 0.21275,0.131753 h 0.744623 c 0.09531,0 0.177008,-0.05502 0.21275,-0.131753 L 12.902553,13.0192 c 0.06382,-0.139975 0.124033,-0.291122 0.186156,-0.447961 0.05617,0.142504 0.09318,0.271517 0.159562,0.42161 l 0.691436,1.528337 c 0.03489,0.07842 0.116587,0.131753 0.21275,0.131753 h 0.718029 c 0.09531,0 0.177859,-0.05249 0.21275,-0.131753 l 1.436059,-3.188426 c 0.02808,-0.06324 0.01851,-0.127116 -0.02659,-0.184455 -0.04255,-0.05481 -0.134458,-0.07905 -0.21275,-0.07905 h -0.771216 c -0.09957,0 -0.207006,0.04912 -0.239344,0.131753 l -0.611654,1.607389 c -0.05617,0.142504 -0.116162,0.249171 -0.159563,0.368909 -0.04936,-0.126483 -0.09914,-0.251912 -0.159562,-0.39526 L 13.67377,11.201006 c -0.03404,-0.07926 -0.141478,-0.131753 -0.239343,-0.131753 h -0.664842 c -0.09701,0 -0.17871,0.05333 -0.21275,0.131753 l -0.718029,1.607389 c -0.05872,0.137445 -0.109354,0.272149 -0.159562,0.395259 -0.0434,-0.12311 -0.08446,-0.258658 -0.132969,-0.395259 l -0.585061,-1.607389 c -0.03064,-0.08432 -0.136372,-0.131753 -0.239343,-0.131753 H 9.9240603 c -0.037869,0 -0.073505,-0.01497 -0.1063747,0 z m 7.5792004,0 c -0.03298,0.01486 -0.05766,0.05165 -0.07978,0.07905 -0.04425,0.05481 -0.05127,0.122056 -0.02659,0.184455 l 1.329685,3.188426 c 0.03404,0.08011 0.113182,0.131753 0.212749,0.131753 h 0.71803 c 0.09446,0 0.177007,-0.05502 0.212749,-0.131753 l 0.71803,-1.501986 c 0.06383,-0.139975 0.124033,-0.291122 0.186156,-0.447961 0.05617,0.142504 0.119777,0.271517 0.186155,0.42161 l 0.664842,1.528337 c 0.03404,0.07842 0.116587,0.131753 0.21275,0.131753 h 0.744623 c 0.09616,0 0.177008,-0.05249 0.21275,-0.131753 L 24.0985,11.33276 c 0.02723,-0.06324 0.01681,-0.127116 -0.02659,-0.184455 -0.0434,-0.05481 -0.107864,-0.07905 -0.186156,-0.07905 h -0.79781 c -0.100418,0 -0.181263,0.04912 -0.21275,0.131753 l -0.638248,1.607389 c -0.05532,0.142504 -0.09127,0.249171 -0.132968,0.368909 -0.05021,-0.126483 -0.09829,-0.251912 -0.159563,-0.39526 l -0.691444,-1.581038 c -0.03404,-0.07926 -0.114885,-0.131753 -0.21275,-0.131753 h -0.691436 c -0.09701,0 -0.177858,0.05333 -0.212749,0.131753 l -0.71803,1.607389 c -0.05872,0.137445 -0.109353,0.272149 -0.159562,0.395259 -0.04255,-0.12311 -0.08446,-0.258658 -0.132968,-0.395259 l -0.585061,-1.607389 c -0.02979,-0.08432 -0.109779,-0.131753 -0.21275,-0.131753 h -0.824404 c -0.03829,0 -0.0734,-0.01486 -0.106375,0 z M 2.5310157,16.207627 c 1.4398885,4.398237 5.6191394,7.588983 10.5310993,7.588983 4.911961,0 9.092062,-3.190746 10.5311,-7.588983 h -1.808371 c -0.240832,0.606275 -0.547617,1.17566 -0.904185,1.712791 -0.05276,-0.01012 -0.104247,-0.02635 -0.159562,-0.02635 h -1.595621 c 0.169348,-0.534601 0.28402,-1.103775 0.398905,-1.68644 h -1.72859 c -0.131053,0.589411 -0.285509,1.161114 -0.478686,1.68644 H 8.8071255 C 8.613949,17.368741 8.4603439,16.797038 8.3284392,16.207627 H 6.5998496 c 0.1148847,0.582665 0.2295567,1.151839 0.3989053,1.68644 H 5.4031338 c -0.055315,0 -0.1068003,0.01623 -0.1595622,0.02635 -0.3565681,-0.53713 -0.6633529,-1.106515 -0.9041853,-1.71279 z m 4.1220213,3.372881 h 1.01056 c 0.2195575,0.457869 0.4559222,0.896554 0.7180295,1.291181 C 7.7527391,20.510791 7.1781027,20.070419 6.653037,19.580508 Z m 2.9518991,0 h 6.9143589 c -0.917376,1.556585 -2.137282,2.529661 -3.45718,2.529661 -1.319898,0 -2.538952,-0.973076 -3.4571789,-2.529661 z m 8.8556979,0 h 1.01056 c -0.525917,0.489911 -1.099702,0.930283 -1.72859,1.291181 0.262958,-0.394627 0.498472,-0.833312 0.71803,-1.291181 z"
     id="path2"
     inkscape:connector-curvature="0"
     style="stroke-width:0.8471002" />
</svg>
