<?xml version="1.0" encoding="iso-8859-1"?>
<!-- Generator: Adobe Illustrator 19.0.0, SVG Export Plug-In . SVG Version: 6.00 Build 0)  -->
<svg version="1.1" id="Layer_1" xmlns="http://www.w3.org/2000/svg" xmlns:xlink="http://www.w3.org/1999/xlink" x="0px" y="0px"
	 viewBox="0 0 800 800" style="enable-background:new 0 0 800 800;" xml:space="preserve">
<g>
	<rect x="412.903" y="154.848" style="fill:#FFE000;" width="361.29" height="44.444"/>
	<rect x="411.903" y="198.292" style="fill:#ED1F34;" width="363.29" height="59.347"/>
	<rect x="412.903" y="199.292" style="fill:#ED1F34;" width="361.29" height="57.347"/>
	<rect x="412.903" y="256.639" style="fill:#FFE000;" width="361.29" height="57.347"/>
	<rect x="411.903" y="312.988" style="fill:#ED1F34;" width="363.29" height="59.347"/>
	<rect x="412.903" y="313.988" style="fill:#ED1F34;" width="361.29" height="57.347"/>
	<path style="fill:#FFE000;" d="M774.193,371.335h-361.29v28.675c0,3.422-1.359,6.702-3.778,9.125
		c-2.421,2.419-5.701,3.778-9.125,3.778l-374.193-0.009v15.778h748.387L774.193,371.335L774.193,371.335z"/>
	<rect x="24.807" y="427.683" style="fill:#ED1F34;" width="750.387" height="59.347"/>
	<rect x="25.807" y="428.683" style="fill:#ED1F34;" width="748.387" height="57.347"/>
	<rect x="25.807" y="486.031" style="fill:#FFE000;" width="748.387" height="57.347"/>
	<rect x="24.807" y="542.378" style="fill:#ED1F34;" width="750.387" height="59.348"/>
	<rect x="25.807" y="543.378" style="fill:#ED1F34;" width="748.387" height="57.348"/>
	<path style="fill:#FFE000;" d="M116.129,645.171h658.064v-44.444H25.807v44.444h38.709c7.128,0,12.903,5.775,12.903,12.903h25.806
		C103.226,650.946,109.001,645.171,116.129,645.171z"/>
	<path style="fill:#6806C1;" d="M24.807,388.098v-234.25h363.29v234.258L24.807,388.098z M81.571,319.289
		c-6.563,0-11.903,5.34-11.903,11.903s5.34,11.903,11.903,11.903h249.758c6.563,0,11.903-5.34,11.903-11.903
		s-5.34-11.903-11.903-11.903h-5.718v-45.562l0.292-0.293c2.246-2.25,3.483-5.237,3.483-8.413c0-6.563-5.34-11.903-11.903-11.903
		h-17.047v-14.566c0-6.563-5.34-11.903-11.903-11.903s-11.903,5.339-11.903,11.903v14.566h-17.234v-14.566
		c0-6.563-5.339-11.903-11.903-11.903s-11.903,5.339-11.903,11.903v14.566h-17.236v-42.356c0-6.563-5.34-11.903-11.903-11.903
		s-11.903,5.34-11.903,11.903v42.356h-17.236v-14.566c0-6.563-5.34-11.903-11.903-11.903s-11.903,5.339-11.903,11.903v14.566H136.27
		v-14.566c0-6.563-5.34-11.903-11.903-11.903s-11.903,5.339-11.903,11.903v14.566H95.417c-6.563,0-11.903,5.34-11.903,11.903
		c0,3.178,1.236,6.166,3.482,8.413l0.292,0.293v45.562L81.571,319.289L81.571,319.289z"/>
	<path style="fill:#6806C1;" d="M387.097,154.848H25.807v232.25l361.29,0.009L387.097,154.848L387.097,154.848z M82.514,265.022
		c0-7.128,5.775-12.903,12.903-12.903h16.044v-13.566c0-7.127,5.775-12.903,12.903-12.903c7.128,0,12.903,5.775,12.903,12.903
		v13.566h15.236v-13.566c0-7.127,5.776-12.903,12.903-12.903c7.128,0,12.903,5.775,12.903,12.903v13.566h15.236v-41.356
		c0-7.127,5.775-12.903,12.903-12.903s12.903,5.776,12.903,12.903v41.356h15.236v-13.566c0-7.127,5.775-12.903,12.903-12.903
		c7.127,0,12.903,5.775,12.903,12.903v13.566h15.234v-13.566c0-7.127,5.776-12.903,12.903-12.903
		c7.128,0,12.903,5.775,12.903,12.903v13.566h16.047c7.127,0,12.903,5.775,12.903,12.903c0,3.561-1.444,6.785-3.775,9.12v44.148
		h4.718c7.128,0,12.903,5.775,12.903,12.903s-5.775,12.903-12.903,12.903H81.571c-7.128,0-12.903-5.775-12.903-12.903
		s5.775-12.903,12.903-12.903h4.717v-44.149C83.955,271.807,82.514,268.583,82.514,265.022z"/>
	<path style="fill:#FFFFFF;" d="M300.809,277.924H112.095v40.365h81.454v-9.595c0-7.128,5.775-12.903,12.903-12.903
		c7.127,0,12.903,5.775,12.903,12.903v9.595h81.454L300.809,277.924L300.809,277.924z"/>
	<path d="M86.288,318.289h-4.717c-7.128,0-12.903,5.775-12.903,12.903s5.775,12.903,12.903,12.903h249.761
		c7.128,0,12.903-5.775,12.903-12.903s-5.775-12.903-12.903-12.903h-4.717v-44.148c2.333-2.334,3.774-5.557,3.774-9.12
		c0-7.128-5.775-12.903-12.903-12.903H301.44v-13.566c0-7.127-5.776-12.903-12.904-12.903c-7.127,0-12.903,5.775-12.903,12.903
		v13.566h-15.235v-13.566c0-7.127-5.775-12.903-12.903-12.903s-12.903,5.775-12.903,12.903v13.566h-15.238v-41.356
		c0-7.127-5.776-12.903-12.903-12.903c-7.128,0-12.903,5.776-12.903,12.903v41.356h-15.236v-13.566
		c0-7.127-5.776-12.903-12.903-12.903c-7.128,0-12.903,5.775-12.903,12.903v13.566H137.27v-13.566
		c0-7.127-5.775-12.903-12.903-12.903c-7.127,0-12.903,5.775-12.903,12.903v13.566H95.418c-7.128,0-12.903,5.775-12.903,12.903
		c0,3.561,1.443,6.785,3.775,9.12v44.148L86.288,318.289L86.288,318.289z M219.355,318.289v-9.595
		c0-7.128-5.776-12.903-12.903-12.903c-7.128,0-12.903,5.775-12.903,12.903v9.595h-81.454v-40.365h188.712v40.365H219.355z"/>
	<path d="M787.097,129.042H400.334c-0.112-0.002-0.221-0.018-0.334-0.018s-0.222,0.014-0.334,0.018H12.903
		C5.775,129.042,0,134.817,0,141.945v516.129c0,7.128,5.775,12.903,12.903,12.903h51.613c7.128,0,12.903-5.775,12.903-12.903l0,0
		c0-7.128-5.775-12.903-12.903-12.903H25.807v-44.444V543.38v-57.347v-57.348v-15.781L400,412.913c3.422,0,6.703-1.359,9.125-3.778
		c2.419-2.421,3.778-5.702,3.778-9.125v-28.675v-57.347v-57.347v-57.347v-44.446h361.29v44.444v57.347v57.347v57.347v57.347v57.347
		v57.348v57.347v44.444H116.129c-7.127,0-12.903,5.775-12.903,12.903l0,0c0,7.128,5.776,12.903,12.903,12.903h670.968
		c7.128,0,12.903-5.775,12.903-12.903V141.94C800,134.817,794.225,129.042,787.097,129.042z M25.807,154.848h361.29v232.258
		l-361.29-0.009C25.807,387.096,25.807,154.848,25.807,154.848z"/>
</g>
<g>
</g>
<g>
</g>
<g>
</g>
<g>
</g>
<g>
</g>
<g>
</g>
<g>
</g>
<g>
</g>
<g>
</g>
<g>
</g>
<g>
</g>
<g>
</g>
<g>
</g>
<g>
</g>
<g>
</g>
</svg>
